<svg width="14" height="8" viewBox="0 0 14 8" fill="none" xmlns="http://www.w3.org/2000/svg">
<path d="M7.65085 5.2835C7.56563 5.36942 7.46425 5.43762 7.35254 5.48415C7.24084 5.53069 7.12102 5.55465 7.00001 5.55465C6.879 5.55465 6.75919 5.53069 6.64748 5.48415C6.53578 5.43762 6.43439 5.36942 6.34918 5.2835L2.15084 1.076C2.06562 0.990084 1.96424 0.921889 1.85253 0.875351C1.74083 0.828813 1.62102 0.804853 1.50001 0.804853C1.37899 0.804853 1.25918 0.828813 1.14748 0.875351C1.03577 0.921889 0.934387 0.990084 0.849171 1.076C0.678441 1.24775 0.582611 1.48008 0.582611 1.72225C0.582611 1.96442 0.678441 2.19675 0.849171 2.3685L5.05668 6.576C5.5723 7.09099 6.27126 7.38025 7.00001 7.38025C7.72877 7.38025 8.42772 7.09099 8.94335 6.576L13.1509 2.3685C13.3202 2.19776 13.4157 1.96731 13.4167 1.72684C13.4174 1.6062 13.3943 1.4866 13.3486 1.37492C13.303 1.26324 13.2358 1.16166 13.1509 1.076C13.0656 0.990084 12.9643 0.921889 12.8525 0.875351C12.7408 0.828813 12.621 0.804853 12.5 0.804853C12.379 0.804853 12.2592 0.828813 12.1475 0.875351C12.0358 0.921889 11.9344 0.990084 11.8492 1.076L7.65085 5.2835Z" fill="#FD9222"/>
</svg>
